<svg width="19" height="23" viewBox="0 0 19 23" fill="none" xmlns="http://www.w3.org/2000/svg">
<path d="M12.1019 9.34375C12.1019 8.9125 11.8144 8.625 11.3832 8.625H7.07068C6.63943 8.625 6.35193 8.9125 6.35193 9.34375C6.35193 9.775 6.63943 10.0625 7.07068 10.0625H11.3832C11.8144 10.0625 12.1019 9.775 12.1019 9.34375Z" fill="white"/>
<path d="M18.427 21.6344C17.9957 19.4781 16.3426 17.7531 14.1863 17.1781C13.0363 16.8906 12.2457 15.9563 12.102 14.8781C12.8926 14.3031 13.4676 13.5125 13.827 12.65C14.4738 12.2906 14.9051 11.5719 14.9051 10.7812V9.34375V8.625V4.3125C14.9051 1.94063 12.9645 0 10.5926 0C9.29883 0 8.07695 0.575 7.28633 1.58125C5.0582 2.08438 3.47695 4.09688 3.47695 6.46875V8.625V9.34375V10.7812C3.47695 11.5719 3.98008 12.2906 4.62695 12.65C4.98633 13.5125 5.56133 14.3031 6.35195 14.8063C6.2082 15.9563 5.3457 16.8906 4.1957 17.1781C2.03945 17.7531 0.458203 19.4062 0.0269531 21.5625C-0.0449219 21.9219 0.0269531 22.2094 0.242578 22.4969C0.458203 22.8562 0.745703 23 1.10508 23H17.4207C17.7801 23 18.0676 22.8562 18.2832 22.5687C18.427 22.3531 18.4988 21.9938 18.427 21.6344ZM5.6332 11.5C5.20195 11.5 4.91445 11.2125 4.91445 10.7812V9.34375V8.625C4.91445 8.19375 5.20195 7.90625 5.6332 7.90625H12.8207C13.252 7.90625 13.5395 8.19375 13.5395 8.625V9.34375V10.7812C13.5395 11.2125 13.252 11.5 12.8207 11.5C11.8145 11.5 10.8801 11.3563 10.0895 10.9969C9.80195 10.8531 9.51445 10.7812 9.22695 10.7812C8.93945 10.7812 8.65195 10.8531 8.36445 10.9969C7.57383 11.3563 6.63945 11.5 5.6332 11.5Z" fill="white"/>
</svg>
