<svg width="28" height="28" viewBox="0 0 28 28" fill="none" xmlns="http://www.w3.org/2000/svg">
<path d="M27.415 7.26054C27.0931 6.05577 26.1443 5.10711 24.9396 4.78511C22.7558 4.19995 14 4.19995 14 4.19995C14 4.19995 5.24415 4.19995 3.06037 4.78511C1.85582 5.10711 0.906937 6.05577 0.584992 7.26054C0 9.4441 0 14.0001 0 14.0001C0 14.0001 0 18.556 0.584992 20.7394C0.906937 21.9441 1.85582 22.8931 3.06037 23.215C5.24415 23.7999 14 23.7999 14 23.7999C14 23.7999 22.7558 23.7999 24.9396 23.215C26.1443 22.8931 27.0931 21.9441 27.415 20.7394C27.9999 18.556 27.9999 14.0001 27.9999 14.0001C27.9999 14.0001 27.9999 9.4441 27.415 7.26054V7.26054ZM11.1998 18.2002V9.80001L18.4743 14.0001L11.1998 18.2002Z" fill="#F28705"/>
</svg>
