<svg width="118" height="97" viewBox="0 0 118 97" fill="none" xmlns="http://www.w3.org/2000/svg">
<path d="M82.2277 21.0106C86.3748 21.0106 89.7367 17.6487 89.7367 13.5016C89.7367 9.35441 86.3748 5.99249 82.2277 5.99249C78.0805 5.99249 74.7186 9.35441 74.7186 13.5016C74.7186 17.6487 78.0805 21.0106 82.2277 21.0106Z" fill="white"/>
<path d="M104.365 62.2792C101.644 59.6913 94.7942 58.6085 88.2941 58.1846C88.2924 58.1747 88.2891 58.1616 88.2875 58.1517C86.3092 50.7872 85.7686 43.1056 85.0916 35.429L98.8528 42.7852C99.4377 43.0991 100.069 43.2486 100.69 43.2486C102.085 43.2486 103.43 42.4977 104.135 41.1848C105.152 39.2821 104.438 36.916 102.532 35.8989L82.8603 25.3829C82.3525 25.1118 81.8103 24.9722 81.2714 24.9377C80.7834 24.6468 80.2411 24.4266 79.6545 24.282C79.0614 24.0044 78.3926 23.8548 77.6976 23.9123C68.2151 24.6879 66.1415 31.0172 64.6265 35.6377C64.058 37.3827 63.5191 39.0274 62.6729 40.4898C61.5851 42.3498 62.2144 44.7422 64.0761 45.8299C64.6923 46.1914 65.3725 46.3623 66.0396 46.3623C67.3804 46.3623 68.6883 45.6689 69.4162 44.4234C70.6847 42.2446 71.4126 40.0248 72.0535 38.0629C72.0551 38.0563 72.0584 38.0498 72.06 38.0432C72.7469 45.963 73.4501 54.0554 75.4711 61.5858C76.4324 65.1744 79.39 66.553 82.2507 66.2934C82.6713 66.4495 83.1149 66.5563 83.5898 66.5661C89.9208 66.737 96.7003 67.6473 98.4551 68.5494C99.1781 69.8327 100.07 75.5326 98.5767 86.4282C98.2497 88.7795 99.8961 90.9451 102.244 91.2639C102.44 91.2951 102.635 91.305 102.831 91.305C104.942 91.305 106.781 89.7489 107.077 87.5931C108.917 74.2543 108.002 65.7347 104.365 62.2792Z" fill="white"/>
<path d="M69.0186 49.2887H62.4461L62.4379 88.5248H94.2783L96.2319 70.5671L73.7031 68.6102L69.0186 49.2887Z" fill="white"/>
<path d="M37.4575 20.7099C41.6037 20.7099 44.9649 17.3487 44.9649 13.2025C44.9649 9.05625 41.6037 5.69507 37.4575 5.69507C33.3113 5.69507 29.9501 9.05625 29.9501 13.2025C29.9501 17.3487 33.3113 20.7099 37.4575 20.7099Z" fill="white"/>
<path d="M55.0586 35.3386C53.547 30.7165 51.4766 24.3856 41.9925 23.61C41.2942 23.5541 40.6304 23.702 40.0356 23.9814C38.5075 24.3576 37.308 25.2613 36.4618 26.474L26.8693 31.8568L17.3934 26.0303C15.4184 24.8144 12.837 25.4322 11.6227 27.4023C10.4085 29.3774 11.0246 31.9587 12.998 33.1746L24.5738 40.2943C25.2475 40.7083 26.0083 40.9154 26.7707 40.9154C27.4789 40.9154 28.1854 40.7346 28.8229 40.3781L34.4063 37.2446C33.8016 44.2115 33.192 51.1619 31.3961 57.851C31.3944 57.8609 31.3928 57.874 31.3895 57.8855C24.8909 58.3094 18.0391 59.3939 15.3181 61.9802C11.6835 65.4373 10.77 73.9536 12.6037 87.2974C12.8994 89.4499 14.7414 91.0076 16.8512 91.0076C17.0467 91.0076 17.2422 90.9944 17.441 90.9714C19.7907 90.6494 21.4338 88.4821 21.1118 86.1373C19.6132 75.2385 20.5038 69.5385 21.2301 68.2553C22.9849 67.3499 29.7661 66.4412 36.0987 66.2753C36.5752 66.2589 37.0205 66.1537 37.4427 66.0025C40.3018 66.2539 43.2561 64.8721 44.219 61.2917C46.2417 53.7629 46.9416 45.6722 47.6301 37.7491C47.6317 37.7556 47.635 37.7622 47.6367 37.7704C48.2775 39.729 49.0037 41.9489 50.2755 44.1293C51.0001 45.3715 52.3081 46.0649 53.6488 46.0649C54.3176 46.0649 54.9946 45.894 55.6157 45.5342C57.4757 44.4464 58.1066 42.0573 57.0189 40.194C56.1661 38.7284 55.6272 37.082 55.0586 35.3386Z" fill="white"/>
<path d="M50.6666 48.988L45.9821 68.3128L23.4532 70.2632L25.4053 88.2258H57.2506L57.2375 48.988H50.6666Z" fill="white"/>
<g clip-path="url(#clip0_59_176)">
<path d="M2.41047 24.9799C2.28431 25.0725 2.19897 25.1498 2.18655 25.1747C2.15871 25.2302 2.12016 25.5294 2.1275 25.6321C2.13131 25.6863 2.22639 25.7136 2.41006 25.7138L2.41091 25.7844V25.7138C2.59457 25.7136 2.68966 25.6863 2.69347 25.632C2.70081 25.5293 2.66209 25.2301 2.63442 25.1746C2.6204 25.147 2.52222 25.0621 2.41047 24.9799Z" fill="white"/>
<path d="M1.97079 24.5112C1.92149 24.4866 1.66788 24.4513 1.54003 24.4513C1.52988 24.4513 1.52097 24.4516 1.51332 24.4521C1.45908 24.456 1.43153 24.5509 1.4314 24.7345C1.43153 24.9192 1.45894 25.0141 1.51319 25.0179C1.52094 25.0185 1.52999 25.0188 1.54017 25.0188C1.66804 25.0188 1.92162 24.9836 1.97063 24.9589C1.99563 24.9464 2.07292 24.8611 2.16544 24.7351C2.07278 24.6088 1.99566 24.5236 1.97079 24.5112Z" fill="white"/>
<path d="M3.30745 24.4522C3.20177 24.444 2.90326 24.4845 2.84998 24.5112C2.82512 24.5237 2.74769 24.6091 2.65503 24.7352C2.72934 24.8365 2.81918 24.9437 2.84984 24.9589C2.89901 24.9837 3.15246 25.0188 3.28046 25.0188C3.29062 25.0188 3.29967 25.0185 3.30717 25.018C3.36142 25.0142 3.38896 24.9193 3.3891 24.7356C3.3891 24.7308 3.38965 24.7254 3.39051 24.7208C3.3891 24.5511 3.36156 24.456 3.30745 24.4522Z" fill="white"/>
<path d="M6.48833 25.6173C6.09515 25.6173 5.77515 25.9373 5.77515 26.3305C5.77515 26.7237 6.09515 27.0437 6.48833 27.0437C6.88151 27.0437 7.20151 26.7237 7.20151 26.3305C7.20151 25.9373 6.88153 25.6173 6.48833 25.6173ZM6.30524 26.5986C6.30496 26.6036 6.29495 26.6109 6.28871 26.6121C6.17613 26.6308 6.06648 26.6188 5.96024 26.5776C5.95105 26.5741 5.94258 26.5685 5.93452 26.5629C5.89399 26.5342 5.89412 26.4962 5.93552 26.4698C5.95345 26.4584 5.97266 26.4476 5.99258 26.4403C6.09487 26.4026 6.19744 26.3661 6.30538 26.3273C6.30538 26.3651 6.3061 26.4001 6.30453 26.4349C6.30425 26.4397 6.29321 26.4456 6.28615 26.4482C6.2295 26.4689 6.17257 26.4886 6.11606 26.5095C6.10293 26.5143 6.09106 26.5223 6.07848 26.529C6.07876 26.5321 6.07903 26.5353 6.07917 26.5385C6.09162 26.5428 6.10433 26.5514 6.11634 26.5506C6.15138 26.5482 6.18656 26.5441 6.22073 26.5365C6.24843 26.5302 6.2747 26.518 6.30591 26.5068C6.3061 26.5399 6.30679 26.5694 6.30524 26.5986ZM6.53537 26.0002C6.53143 26.0095 6.53256 26.0212 6.53256 26.032C6.53239 26.2509 6.53256 26.4701 6.53256 26.6891C6.53256 26.6995 6.53256 26.7098 6.53256 26.7242C6.46827 26.7039 6.40864 26.6851 6.34917 26.6656C6.34451 26.6641 6.34028 26.6567 6.33885 26.6512C6.33701 26.6443 6.33816 26.6365 6.33816 26.629C6.33844 26.3703 6.33871 26.1116 6.33901 25.853C6.33901 25.8439 6.33901 25.835 6.33901 25.8225C6.35667 25.826 6.37207 25.8278 6.38675 25.8321C6.47069 25.8567 6.5546 25.8811 6.6381 25.9072C6.65985 25.914 6.68048 25.9256 6.70068 25.9368C6.76654 25.9733 6.80468 26.0293 6.81414 26.1043C6.82063 26.1563 6.82303 26.2079 6.80623 26.2589C6.77783 26.3448 6.69856 26.3691 6.61522 26.3294C6.60871 26.3263 6.60446 26.312 6.60446 26.3029C6.60363 26.2153 6.60477 26.1278 6.6035 26.0402C6.6032 26.0228 6.59839 26.0039 6.58978 25.989C6.58454 25.9801 6.5673 25.9731 6.5567 25.9745C6.54823 25.9752 6.53962 25.9899 6.53537 26.0002ZM7.03777 26.4349C7.08269 26.4647 7.08481 26.5009 7.03959 26.5301C7.01163 26.5483 6.97968 26.5616 6.9482 26.5732C6.82742 26.6177 6.7059 26.6606 6.58468 26.7042C6.57944 26.706 6.57381 26.7071 6.56434 26.7097C6.56434 26.6738 6.56335 26.6416 6.56517 26.6097C6.56561 26.603 6.57593 26.5941 6.58341 26.5914C6.671 26.5594 6.75899 26.5284 6.84688 26.4969C6.85847 26.4928 6.87061 26.4891 6.88137 26.4832C6.88785 26.4797 6.8921 26.4722 6.89732 26.4664C6.89122 26.4617 6.88573 26.4545 6.87894 26.4528C6.84009 26.4431 6.80179 26.4479 6.76451 26.4609C6.70756 26.4806 6.65091 26.501 6.59398 26.5211C6.58565 26.524 6.57716 26.5265 6.5646 26.5305C6.5646 26.4919 6.56404 26.4569 6.56531 26.4217C6.56545 26.4171 6.57406 26.4103 6.58 26.4084C6.72875 26.3615 6.87583 26.3631 7.0205 26.4251C7.02662 26.4277 7.03227 26.4312 7.03777 26.4349Z" fill="white"/>
<path d="M3.81918 23.7403C3.8819 23.7403 3.93292 23.6892 3.93292 23.6265V23.317C3.93292 23.2544 3.88193 23.2032 3.81918 23.2032C3.75644 23.2032 3.70544 23.2543 3.70544 23.317V23.6265C3.70547 23.6892 3.75646 23.7403 3.81918 23.7403Z" fill="white"/>
<path d="M2.41037 24.4904C2.52226 24.4082 2.6203 24.3233 2.63429 24.2955C2.66213 24.2398 2.70068 23.9407 2.69334 23.8383C2.68939 23.7839 2.59431 23.7565 2.41078 23.7563C2.22627 23.7565 2.13121 23.7839 2.12737 23.8382C2.12003 23.941 2.15875 24.2401 2.18642 24.2955C2.20041 24.3233 2.29862 24.4082 2.41037 24.4904Z" fill="white"/>
<path d="M9.15756 23.7403C9.22031 23.7403 9.2713 23.6892 9.2713 23.6265V23.317C9.2713 23.2544 9.22031 23.2032 9.15756 23.2032C9.09484 23.2032 9.04382 23.2543 9.04382 23.317V23.6265C9.04385 23.6892 9.09486 23.7403 9.15756 23.7403Z" fill="white"/>
<path d="M10.5399 25.9815C10.7531 25.9815 10.9259 25.8087 10.9259 25.5955C10.9259 25.3823 10.7531 25.2095 10.5399 25.2095C10.3267 25.2095 10.1539 25.3823 10.1539 25.5955C10.1539 25.8087 10.3267 25.9815 10.5399 25.9815Z" fill="white"/>
<path d="M11.4457 25.0758C11.6588 25.0758 11.8316 24.903 11.8316 24.6898C11.8316 24.4766 11.6588 24.3038 11.4457 24.3038C11.2325 24.3038 11.0597 24.4766 11.0597 24.6898C11.0597 24.903 11.2325 25.0758 11.4457 25.0758Z" fill="white"/>
<path d="M11.4738 22.9262C11.4444 22.8812 11.3872 22.8431 11.3116 22.8115V22.694C11.3116 22.694 10.6395 22.2405 9.74794 22.6092C9.74794 22.6092 9.71966 22.6334 9.70865 22.7582C9.65256 22.7708 9.60382 22.7849 9.56428 22.8009C9.39105 22.871 9.28043 22.8525 9.28043 22.8525H8.67718C8.69906 22.8994 8.71222 22.9511 8.71222 23.0062V24.8727C8.71222 25.0743 8.54821 25.2384 8.34658 25.2384H4.63024C4.42864 25.2384 4.26463 25.0744 4.26463 24.8727V23.0062C4.26463 22.9511 4.27776 22.8994 4.29967 22.8525H3.7196C3.7196 22.8525 3.60898 22.8708 3.43577 22.8009C3.39606 22.785 3.34747 22.7707 3.2914 22.7582C3.28036 22.6334 3.25211 22.6092 3.25211 22.6092C2.36051 22.2406 1.68844 22.694 1.68844 22.694V22.8115C1.61272 22.8431 1.55564 22.8812 1.52625 22.9262C1.52625 22.9262 0.965936 23.7668 0.803604 24.342C0.64125 24.9171 -0.140168 28.1466 0.022025 29.3853C0.184218 30.6241 2.05715 30.9337 2.54371 29.9605C3.0304 28.9872 3.35479 27.8074 3.35479 27.8074C3.35479 27.8074 3.54651 27.6673 3.59074 27.6673C3.59074 27.6673 4.4165 28.353 5.30868 27.6082H7.69135C8.5835 28.3529 9.40929 27.6673 9.40929 27.6673C9.4535 27.6673 9.64524 27.8074 9.64524 27.8074C9.64524 27.8074 9.9696 28.9872 10.4563 29.9605C10.943 30.9337 12.8158 30.6241 12.978 29.3853C13.1402 28.1466 12.3586 24.9171 12.1964 24.342C12.0342 23.7668 11.4738 22.9262 11.4738 22.9262ZM3.56417 23.317C3.56417 23.1764 3.67862 23.062 3.81918 23.062C3.95975 23.062 4.07418 23.1764 4.07418 23.317V23.6265C4.07418 23.7671 3.95975 23.8815 3.81918 23.8815C3.67862 23.8815 3.56417 23.7671 3.56417 23.6265V23.317ZM1.98651 23.828C2.00149 23.6152 2.28772 23.6151 2.40977 23.6149C2.53297 23.6151 2.81892 23.6152 2.83418 23.828C2.84139 23.928 2.8072 24.2655 2.76057 24.3586C2.7213 24.4375 2.53819 24.5734 2.45626 24.6316C2.45075 24.6361 2.44454 24.64 2.43789 24.6429C2.429 24.6464 2.41965 24.6482 2.41049 24.6482C2.40963 24.6482 2.40878 24.6482 2.40781 24.6482C2.39862 24.6479 2.38929 24.6458 2.38068 24.6419C2.37461 24.6389 2.36896 24.6355 2.36415 24.6313C2.28193 24.573 2.09953 24.4375 2.06027 24.3586C2.01364 24.2657 1.97931 23.9282 1.98651 23.828ZM1.50319 25.159C1.29041 25.1439 1.29028 24.8578 1.29028 24.7356C1.29028 24.6124 1.29042 24.3264 1.50333 24.3112C1.51362 24.3105 1.5262 24.31 1.54005 24.31C1.65788 24.31 1.94736 24.3417 2.03397 24.3847C2.10872 24.4221 2.23543 24.5892 2.30651 24.6888C2.30977 24.6925 2.31258 24.6967 2.31498 24.7011C2.32149 24.7134 2.32431 24.7272 2.32332 24.7405C2.32276 24.749 2.3205 24.7572 2.31697 24.7652C2.31415 24.7713 2.31048 24.7768 2.30624 24.7817C2.23474 24.8816 2.10858 25.048 2.034 25.0851C1.94796 25.1283 1.65834 25.1598 1.54038 25.1598C1.52623 25.1601 1.51378 25.1597 1.50319 25.159ZM2.83432 25.6421C2.8192 25.8549 2.53311 25.8551 2.4109 25.8552H2.41049C2.28772 25.8551 2.00163 25.8549 1.98665 25.6421C1.97945 25.5421 2.01361 25.2045 2.06024 25.1115C2.09769 25.0368 2.26466 24.91 2.36413 24.839C2.36739 24.8362 2.37078 24.8337 2.37459 24.8316C2.37925 24.8288 2.38422 24.8267 2.38929 24.8252C2.40723 24.8192 2.42715 24.821 2.44424 24.83C2.44961 24.8329 2.45442 24.8363 2.45878 24.8403C2.54186 24.8994 2.72185 25.0334 2.76084 25.1114C2.8072 25.2046 2.84139 25.5423 2.83432 25.6421ZM3.52998 24.7431C3.53042 24.8578 3.53012 25.1439 3.31737 25.159C3.30691 25.1597 3.29449 25.1601 3.2805 25.1601C3.16254 25.1601 2.87292 25.1285 2.78672 25.0854C2.70308 25.0436 2.55149 24.8343 2.51393 24.7811C2.50998 24.7764 2.50673 24.7713 2.50403 24.7657C2.50289 24.7633 2.5019 24.761 2.50107 24.7585C2.495 24.7413 2.49555 24.7219 2.50375 24.7048C2.50686 24.698 2.51095 24.6921 2.51575 24.6867C2.58738 24.5866 2.71271 24.422 2.78688 24.385C2.8732 24.3417 3.16282 24.3102 3.28064 24.3102C3.29463 24.3102 3.30707 24.3107 3.31753 24.3114C3.52945 24.3263 3.53044 24.6106 3.53044 24.7335C3.53053 24.7366 3.53039 24.7398 3.52998 24.7431ZM4.31294 27.303C3.89631 27.303 3.5574 26.9641 3.5574 26.5475C3.5574 26.1309 3.89633 25.7918 4.31294 25.7918C4.72955 25.7918 5.06851 26.1307 5.06851 26.5475C5.06851 26.964 4.72944 27.303 4.31294 27.303ZM6.48833 27.1143C6.05616 27.1143 5.70451 26.7628 5.70451 26.3305C5.70451 25.8982 6.05614 25.5467 6.48833 25.5467C6.9205 25.5467 7.27215 25.8982 7.27215 26.3305C7.27217 26.7628 6.9205 27.1143 6.48833 27.1143ZM10.5399 23.2568C10.8307 23.2568 11.0672 23.4933 11.0672 23.7841C11.0672 24.0748 10.8307 24.3113 10.5399 24.3113C10.2492 24.3113 10.0127 24.0748 10.0127 23.7841C10.0127 23.4933 10.2492 23.2568 10.5399 23.2568ZM8.90253 23.317C8.90253 23.1764 9.01696 23.062 9.15753 23.062C9.29811 23.062 9.41254 23.1764 9.41254 23.317V23.6265C9.41254 23.7671 9.29811 23.8815 9.15753 23.8815C9.01696 23.8815 8.90253 23.7671 8.90253 23.6265V23.317ZM8.5513 27.303C8.13467 27.303 7.79576 26.9641 7.79576 26.5475C7.79576 26.1309 8.13469 25.7918 8.5513 25.7918C8.96791 25.7918 9.30684 26.1307 9.30684 26.5475C9.30684 26.964 8.96779 27.303 8.5513 27.303ZM9.63404 25.2169C9.34329 25.2169 9.10679 24.9804 9.10679 24.6896C9.10679 24.3989 9.34329 24.1624 9.63404 24.1624C9.92482 24.1624 10.1613 24.3989 10.1613 24.6896C10.1613 24.9804 9.92482 25.2169 9.63404 25.2169ZM10.5399 26.1228C10.2492 26.1228 10.0127 25.8863 10.0127 25.5955C10.0127 25.3048 10.2492 25.0683 10.5399 25.0683C10.8307 25.0683 11.0672 25.3048 11.0672 25.5955C11.0672 25.8863 10.8305 26.1228 10.5399 26.1228ZM11.4457 25.2169C11.1549 25.2169 10.9184 24.9804 10.9184 24.6896C10.9184 24.3989 11.1549 24.1624 11.4457 24.1624C11.7364 24.1624 11.9729 24.3989 11.9729 24.6896C11.9729 24.9804 11.7364 25.2169 11.4457 25.2169Z" fill="white"/>
<path d="M10.5399 24.1699C10.7531 24.1699 10.9259 23.9971 10.9259 23.7839C10.9259 23.5708 10.7531 23.3979 10.5399 23.3979C10.3267 23.3979 10.1539 23.5708 10.1539 23.7839C10.1539 23.9971 10.3267 24.1699 10.5399 24.1699Z" fill="white"/>
<path d="M9.63402 25.0758C9.84719 25.0758 10.02 24.903 10.02 24.6898C10.02 24.4766 9.84719 24.3038 9.63402 24.3038C9.42085 24.3038 9.24805 24.4766 9.24805 24.6898C9.24805 24.903 9.42085 25.0758 9.63402 25.0758Z" fill="white"/>
<path d="M4.40588 23.0062V24.8727C4.40588 24.9965 4.50646 25.0971 4.63022 25.0971H8.3464C8.47002 25.0971 8.57076 24.9965 8.57076 24.8727V23.0062C8.57076 22.9465 8.54703 22.8927 8.50901 22.8525H4.46761C4.42961 22.8926 4.40588 22.9465 4.40588 23.0062Z" fill="white"/>
<path d="M8.55127 25.9332C8.21262 25.9332 7.93701 26.2089 7.93701 26.5477C7.93701 26.8864 8.21262 27.1619 8.55127 27.1619C8.88993 27.1619 9.16554 26.8864 9.16554 26.5477C9.16554 26.2089 8.88993 25.9332 8.55127 25.9332Z" fill="white"/>
<path d="M4.31299 25.9332C3.97436 25.9332 3.69873 26.2089 3.69873 26.5477C3.69873 26.8864 3.97436 27.1619 4.31299 27.1619C4.65164 27.1619 4.92727 26.8864 4.92727 26.5477C4.92727 26.2089 4.65162 25.9332 4.31299 25.9332Z" fill="white"/>
</g>
<g clip-path="url(#clip1_59_176)">
<path d="M105.451 39.1964C105.349 39.3146 105.282 39.4089 105.276 39.4358C105.261 39.4961 105.289 39.7965 105.319 39.8951C105.335 39.947 105.434 39.9527 105.613 39.9123L105.629 39.981L105.614 39.9121C105.793 39.8713 105.88 39.8236 105.871 39.7699C105.856 39.6681 105.752 39.3848 105.713 39.3369C105.693 39.313 105.578 39.2519 105.451 39.1964Z" fill="white"/>
<path d="M104.919 38.8365C104.865 38.8234 104.61 38.845 104.485 38.8732C104.476 38.8755 104.467 38.8777 104.46 38.8799C104.408 38.8956 104.402 38.9943 104.442 39.1735C104.483 39.3535 104.531 39.4401 104.584 39.4318C104.592 39.4306 104.601 39.4289 104.611 39.4267C104.736 39.3984 104.975 39.3081 105.018 39.2731C105.039 39.2555 105.096 39.1552 105.158 39.0118C105.04 38.9091 104.946 38.8431 104.919 38.8365Z" fill="white"/>
<path d="M106.209 38.4836C106.105 38.4989 105.822 38.6044 105.776 38.6422C105.755 38.6598 105.698 38.7603 105.636 38.9037C105.73 38.9861 105.842 39.0708 105.875 39.0789C105.928 39.0921 106.183 39.0705 106.308 39.0422C106.318 39.0399 106.327 39.0376 106.334 39.0354C106.386 39.0197 106.392 38.9211 106.352 38.7419C106.351 38.7372 106.35 38.7319 106.35 38.7271C106.311 38.5619 106.263 38.4753 106.209 38.4836Z" fill="white"/>
<path d="M109.569 38.9171C109.186 39.004 108.944 39.3868 109.031 39.7703C109.118 40.1537 109.501 40.3951 109.884 40.3083C110.268 40.2214 110.509 39.8386 110.422 39.4552C110.335 39.0717 109.953 38.8303 109.569 38.9171ZM109.607 39.9147C109.608 39.9196 109.6 39.9289 109.594 39.9314C109.489 39.9746 109.379 39.9871 109.266 39.9704C109.256 39.969 109.247 39.9654 109.238 39.9617C109.192 39.9427 109.184 39.9056 109.218 39.8707C109.233 39.8556 109.25 39.8409 109.267 39.8293C109.359 39.7699 109.451 39.7117 109.548 39.65C109.556 39.6869 109.564 39.7209 109.57 39.7551C109.571 39.7599 109.562 39.7681 109.555 39.7721C109.505 39.8049 109.454 39.8366 109.403 39.8695C109.391 39.8771 109.382 39.8876 109.371 39.8968C109.372 39.8998 109.373 39.9029 109.374 39.9059C109.387 39.9074 109.401 39.913 109.412 39.9096C109.446 39.8995 109.48 39.8877 109.511 39.8727C109.537 39.8605 109.56 39.8427 109.588 39.825C109.595 39.8572 109.602 39.8858 109.607 39.9147ZM109.7 39.2802C109.698 39.2901 109.701 39.3013 109.704 39.3118C109.752 39.5254 109.801 39.7391 109.849 39.9526C109.851 39.9628 109.854 39.9729 109.857 39.9869C109.79 39.9813 109.727 39.9762 109.665 39.9703C109.66 39.9698 109.654 39.9636 109.652 39.9585C109.648 39.9521 109.648 39.9443 109.646 39.937C109.589 39.6847 109.532 39.4323 109.476 39.18C109.474 39.1712 109.472 39.1625 109.469 39.1502C109.487 39.1498 109.502 39.1481 109.517 39.149C109.605 39.1545 109.692 39.1598 109.779 39.1668C109.802 39.1686 109.825 39.1754 109.847 39.1818C109.919 39.2029 109.969 39.2491 109.994 39.3201C110.012 39.3694 110.026 39.4192 110.021 39.4726C110.012 39.5627 109.94 39.6039 109.85 39.5836C109.843 39.582 109.836 39.569 109.834 39.5602C109.814 39.4749 109.795 39.3893 109.775 39.3041C109.771 39.2872 109.762 39.2698 109.75 39.2573C109.743 39.2497 109.725 39.2467 109.715 39.2504C109.707 39.2529 109.701 39.2692 109.7 39.2802ZM110.286 39.5931C110.336 39.6123 110.346 39.6471 110.308 39.6856C110.285 39.7096 110.257 39.7296 110.229 39.7478C110.121 39.8179 110.012 39.8866 109.903 39.9559C109.898 39.9588 109.893 39.9612 109.885 39.9657C109.877 39.9307 109.869 39.8995 109.863 39.868C109.862 39.8614 109.87 39.8505 109.877 39.8462C109.955 39.7955 110.034 39.746 110.113 39.6958C110.124 39.6892 110.135 39.683 110.144 39.6748C110.149 39.6699 110.152 39.6617 110.156 39.6549C110.149 39.6517 110.142 39.6458 110.135 39.6457C110.095 39.6448 110.058 39.6579 110.025 39.6788C109.974 39.7107 109.923 39.7431 109.872 39.7752C109.864 39.7799 109.857 39.7843 109.845 39.7909C109.837 39.7533 109.828 39.7193 109.822 39.6847C109.821 39.6801 109.828 39.6716 109.833 39.6685C109.968 39.5899 110.112 39.5589 110.267 39.5874C110.273 39.5886 110.279 39.5908 110.286 39.5931Z" fill="white"/>
<path d="M106.551 37.6762C106.612 37.6623 106.651 37.6013 106.637 37.5401L106.569 37.2382C106.555 37.1772 106.494 37.1386 106.432 37.1524C106.371 37.1663 106.333 37.2273 106.347 37.2885L106.415 37.5904C106.429 37.6515 106.49 37.69 106.551 37.6762Z" fill="white"/>
<path d="M105.343 38.7191C105.434 38.6142 105.511 38.5097 105.518 38.4795C105.533 38.419 105.505 38.1188 105.475 38.0205C105.459 37.9684 105.36 37.9626 105.181 38.003C105.001 38.0439 104.915 38.0917 104.923 38.1454C104.938 38.2474 105.042 38.5305 105.081 38.5784C105.101 38.6025 105.216 38.6636 105.343 38.7191Z" fill="white"/>
<path d="M111.758 36.4968C111.819 36.4829 111.857 36.4219 111.843 36.3607L111.775 36.0588C111.761 35.9978 111.7 35.9592 111.639 35.973C111.578 35.9869 111.539 36.0479 111.553 36.1091L111.621 36.411C111.635 36.4722 111.696 36.5106 111.758 36.4968Z" fill="white"/>
<path d="M113.601 38.3773C113.809 38.3302 113.939 38.1234 113.892 37.9155C113.845 37.7076 113.638 37.5773 113.431 37.6244C113.223 37.6715 113.092 37.8782 113.139 38.0861C113.186 38.294 113.393 38.4244 113.601 38.3773Z" fill="white"/>
<path d="M114.284 37.2938C114.492 37.2467 114.623 37.04 114.575 36.832C114.528 36.6241 114.322 36.4938 114.114 36.5409C113.906 36.588 113.775 36.7947 113.823 37.0026C113.87 37.2105 114.076 37.3409 114.284 37.2938Z" fill="white"/>
<path d="M113.837 35.1911C113.798 35.1537 113.734 35.1292 113.653 35.1151L113.627 35.0004C113.627 35.0004 112.872 34.7066 112.084 35.2632C112.084 35.2632 112.061 35.293 112.078 35.4173C112.026 35.4419 111.982 35.4665 111.947 35.4908C111.793 35.5974 111.681 35.6038 111.681 35.6038L111.093 35.7371C111.125 35.7779 111.149 35.8255 111.161 35.8792L111.573 37.6996C111.618 37.8963 111.494 38.0925 111.298 38.137L107.673 38.9581C107.477 39.0026 107.28 38.8789 107.236 38.6823L106.823 36.8618C106.811 36.8081 106.813 36.7547 106.824 36.7042L106.258 36.8323C106.258 36.8323 106.154 36.8747 105.97 36.8447C105.927 36.838 105.877 36.8348 105.819 36.835C105.781 36.7157 105.748 36.6983 105.748 36.6983C104.797 36.5358 104.242 37.1265 104.242 37.1265L104.268 37.2411C104.201 37.2887 104.154 37.3384 104.135 37.3888C104.135 37.3888 103.774 38.3325 103.743 38.9293C103.712 39.5261 103.663 42.8484 104.095 44.0207C104.527 45.193 106.422 45.0812 106.681 44.0245C106.941 42.9678 106.997 41.7454 106.997 41.7454C106.997 41.7454 107.153 41.5664 107.196 41.5566C107.196 41.5566 108.153 42.043 108.858 41.1195L111.182 40.593C112.217 41.1222 112.871 40.2711 112.871 40.2711C112.914 40.2613 113.132 40.3556 113.132 40.3556C113.132 40.3556 113.709 41.4346 114.399 42.2764C115.088 43.118 116.846 42.4022 116.731 41.1583C116.615 39.9144 115.14 36.9373 114.854 36.4122C114.569 35.8871 113.837 35.1911 113.837 35.1911ZM106.209 37.3197C106.178 37.1826 106.264 37.0457 106.401 37.0147C106.538 36.9836 106.675 37.0699 106.706 37.207L106.775 37.5089C106.806 37.646 106.719 37.7829 106.582 37.814C106.445 37.845 106.308 37.7587 106.277 37.6216L106.209 37.3197ZM104.783 38.1666C104.751 37.9558 105.03 37.8924 105.149 37.8653C105.269 37.8383 105.548 37.7752 105.61 37.9794C105.639 38.0753 105.68 38.4121 105.655 38.5132C105.634 38.5987 105.486 38.7717 105.419 38.8466C105.414 38.8522 105.409 38.8574 105.403 38.8617C105.396 38.8671 105.387 38.8709 105.378 38.8729C105.377 38.8731 105.376 38.8733 105.375 38.8735C105.366 38.8753 105.357 38.8753 105.347 38.8733C105.341 38.8718 105.335 38.8697 105.329 38.8667C105.236 38.8279 105.028 38.7361 104.972 38.6679C104.906 38.5875 104.798 38.2659 104.783 38.1666ZM104.606 39.5715C104.395 39.6038 104.332 39.3248 104.305 39.2056C104.277 39.0854 104.214 38.8065 104.419 38.7446C104.429 38.7417 104.441 38.7385 104.454 38.7354C104.569 38.7094 104.858 38.6763 104.952 38.6992C105.034 38.719 105.194 38.854 105.285 38.9355C105.289 38.9383 105.293 38.9419 105.296 38.9456C105.305 38.9561 105.311 38.969 105.313 38.9822C105.315 38.9906 105.314 38.9991 105.313 39.0077C105.311 39.0142 105.309 39.0204 105.306 39.0262C105.258 39.1394 105.172 39.3296 105.107 39.3822C105.033 39.4433 104.757 39.538 104.642 39.5641C104.629 39.5675 104.616 39.5699 104.606 39.5715ZM106.011 39.7487C106.043 39.9595 105.764 40.0229 105.645 40.05L105.645 40.0501C105.525 40.0771 105.246 40.1401 105.184 39.9359C105.155 39.84 105.114 39.5031 105.139 39.4022C105.159 39.321 105.294 39.1605 105.375 39.0692C105.377 39.0658 105.38 39.0626 105.383 39.0598C105.387 39.056 105.392 39.0528 105.396 39.0502C105.412 39.0404 105.432 39.0378 105.451 39.0427C105.457 39.0444 105.462 39.0467 105.467 39.0496C105.562 39.0889 105.767 39.1798 105.822 39.2472C105.888 39.3279 105.996 39.6497 106.011 39.7487ZM106.491 38.7181C106.516 38.8299 106.579 39.109 106.375 39.1707C106.365 39.1737 106.353 39.1769 106.339 39.18C106.224 39.206 105.935 39.2392 105.841 39.2162C105.751 39.1939 105.557 39.0233 105.508 38.9797C105.503 38.976 105.499 38.9717 105.495 38.9668C105.493 38.9647 105.492 38.9628 105.491 38.9605C105.481 38.945 105.477 38.926 105.481 38.9075C105.483 38.9002 105.486 38.8935 105.489 38.8872C105.537 38.7737 105.623 38.5855 105.687 38.533C105.761 38.4718 106.037 38.3771 106.152 38.351C106.166 38.348 106.178 38.3456 106.188 38.344C106.398 38.3118 106.462 38.5888 106.489 38.7087C106.49 38.7117 106.49 38.7148 106.491 38.7181ZM107.82 41.0418C107.414 41.1339 107.008 40.8782 106.916 40.4719C106.824 40.0655 107.08 39.66 107.486 39.5679C107.892 39.4759 108.298 39.7316 108.39 40.138C108.482 40.5442 108.226 40.9498 107.82 41.0418ZM109.9 40.3771C109.478 40.4726 109.058 40.2075 108.962 39.7859C108.867 39.3642 109.132 38.9437 109.553 38.8483C109.975 38.7528 110.396 39.0179 110.491 39.4395C110.587 39.8611 110.321 40.2817 109.9 40.3771ZM112.999 35.7199C113.283 35.6556 113.566 35.834 113.63 36.1176C113.694 36.4012 113.516 36.6841 113.232 36.7483C112.948 36.8125 112.666 36.6342 112.601 36.3506C112.537 36.067 112.715 35.7841 112.999 35.7199ZM111.415 36.1403C111.384 36.0032 111.471 35.8663 111.608 35.8352C111.745 35.8042 111.882 35.8905 111.913 36.0276L111.981 36.3295C112.012 36.4666 111.926 36.6035 111.789 36.6346C111.652 36.6656 111.515 36.5793 111.484 36.4422L111.415 36.1403ZM111.953 40.1054C111.547 40.1975 111.142 39.9418 111.05 39.5355C110.958 39.1292 111.213 38.7236 111.62 38.6315C112.026 38.5395 112.431 38.7952 112.523 39.2016C112.615 39.6078 112.36 40.0134 111.953 40.1054ZM112.549 37.8317C112.265 37.8959 111.982 37.7175 111.918 37.4339C111.854 37.1503 112.032 36.8674 112.316 36.8032C112.599 36.739 112.882 36.9174 112.946 37.2009C113.011 37.4845 112.832 37.7674 112.549 37.8317ZM113.632 38.515C113.349 38.5792 113.066 38.4009 113.002 38.1173C112.937 37.8337 113.116 37.5508 113.399 37.4865C113.683 37.4223 113.966 37.6007 114.03 37.8843C114.094 38.1679 113.916 38.4508 113.632 38.515ZM114.315 37.4314C114.032 37.4956 113.749 37.3172 113.685 37.0337C113.621 36.7501 113.799 36.4672 114.082 36.403C114.366 36.3387 114.649 36.5171 114.713 36.8007C114.777 37.0843 114.599 37.3672 114.315 37.4314Z" fill="white"/>
<path d="M113.201 36.6104C113.409 36.5633 113.539 36.3565 113.492 36.1486C113.445 35.9407 113.238 35.8104 113.03 35.8575C112.822 35.9046 112.692 36.1113 112.739 36.3192C112.786 36.5271 112.993 36.6574 113.201 36.6104Z" fill="white"/>
<path d="M112.517 37.694C112.725 37.6469 112.856 37.4402 112.809 37.2323C112.762 37.0244 112.555 36.8941 112.347 36.9412C112.139 36.9882 112.009 37.195 112.056 37.4029C112.103 37.6108 112.31 37.7411 112.517 37.694Z" fill="white"/>
<path d="M106.961 36.8306L107.374 38.6511C107.401 38.7718 107.521 38.8477 107.642 38.8203L111.266 37.9993C111.387 37.972 111.463 37.8516 111.436 37.7309L111.023 35.9105C111.01 35.8523 110.975 35.8051 110.929 35.7742L106.987 36.6671C106.959 36.7146 106.948 36.7725 106.961 36.8306Z" fill="white"/>
<path d="M111.651 38.7694C111.321 38.8443 111.113 39.174 111.188 39.5044C111.262 39.8348 111.592 40.0426 111.922 39.9678C112.253 39.8929 112.461 39.5634 112.386 39.233C112.311 38.9026 111.981 38.6946 111.651 38.7694Z" fill="white"/>
<path d="M107.517 39.7058C107.187 39.7807 106.979 40.1104 107.054 40.4408C107.129 40.7712 107.458 40.979 107.789 40.9042C108.119 40.8293 108.327 40.4998 108.252 40.1694C108.177 39.839 107.847 39.631 107.517 39.7058Z" fill="white"/>
</g>
<defs>
<clipPath id="clip0_59_176">
<rect width="13" height="13" fill="white" transform="translate(0 20)"/>
</clipPath>
<clipPath id="clip1_59_176">
<rect width="13" height="13" fill="white" transform="translate(102 34.8721) rotate(-12.7637)"/>
</clipPath>
</defs>
</svg>
