<svg width="118" height="118" viewBox="0 0 118 118" fill="none" xmlns="http://www.w3.org/2000/svg">
<path d="M88.6165 102.215H29.1843C27.7027 102.215 26.2817 102.804 25.234 103.851C24.1864 104.899 23.5978 106.32 23.5978 107.802V113.392C23.5977 113.613 23.6411 113.832 23.7256 114.036C23.8101 114.24 23.934 114.426 24.0901 114.582C24.2463 114.738 24.4317 114.862 24.6358 114.947C24.8398 115.031 25.0586 115.075 25.2795 115.075H92.521C92.9672 115.075 93.3951 114.897 93.7106 114.582C94.026 114.267 94.2033 113.839 94.2033 113.392V107.802C94.2034 107.069 94.0589 106.342 93.7782 105.664C93.4975 104.986 93.086 104.37 92.5672 103.852C92.0484 103.333 91.4325 102.921 90.7546 102.64C90.0768 102.36 89.3502 102.215 88.6165 102.215V102.215Z" fill="white"/>
<path d="M102.686 11.3992H93.3675V8.36455C93.3675 7.41091 92.9887 6.49631 92.3145 5.82188C91.6403 5.14746 90.7258 4.76842 89.7722 4.76813H28.6578C28.1855 4.7681 27.7178 4.86111 27.2814 5.04184C26.8451 5.22256 26.4486 5.48747 26.1146 5.82143C25.7806 6.15539 25.5157 6.55186 25.3349 6.98821C25.1542 7.42456 25.0612 7.89224 25.0612 8.36455V11.3992H15.3149C13.1095 11.4018 10.9952 12.2791 9.4358 13.8385C7.87636 15.3979 6.99911 17.5122 6.99647 19.7176V25.1065C6.942 29.4246 8.01996 33.6815 10.123 37.4532C12.226 41.2249 15.2806 44.3796 18.9825 46.6032C22.2004 48.4594 25.8002 49.5551 29.5066 49.8063C29.5859 49.8116 29.6652 49.8143 29.7445 49.8144C29.8755 49.8103 30.0061 49.798 30.1355 49.7776C33.7024 55.5742 38.9142 60.1778 45.1068 63.0019C47.3719 64.0759 49.2813 65.777 50.6087 67.9036C51.9361 70.0301 52.6256 72.4927 52.5955 74.9993V81.1748C52.5956 82.2813 52.1562 83.3424 51.3739 84.1249C50.5916 84.9074 49.5305 85.3471 48.4241 85.3472H39.7996C38.4572 85.3472 37.1698 85.8805 36.2207 86.8297C35.2715 87.7789 34.7383 89.0663 34.7383 90.4087V97.3279H83.6911V90.4077C83.6909 89.0655 83.1575 87.7783 82.2083 86.8293C81.259 85.8803 79.9717 85.3471 78.6295 85.3472H70.0048C68.8983 85.3471 67.8371 84.9076 67.0546 84.1251C66.2722 83.3427 65.8326 82.2815 65.8326 81.175V74.9986C65.8025 72.4919 66.4922 70.0292 67.8196 67.9027C69.1471 65.7762 71.0567 64.075 73.3219 63.0011C79.5014 60.1834 84.7046 55.5936 88.2714 49.8141C88.3451 49.8141 88.4198 49.8113 88.4941 49.8063C92.2 49.5553 95.7993 48.4597 99.0164 46.6032C102.719 44.3798 105.774 41.2252 107.877 37.4535C109.98 33.6818 111.059 29.4247 111.004 25.1065V19.7176C111.002 17.5122 110.125 15.3979 108.565 13.8385C107.006 12.2791 104.891 11.4018 102.686 11.3992V11.3992ZM22.2146 41.017C19.4913 39.3615 17.2492 37.0215 15.7114 34.2301C14.1736 31.4386 13.3938 28.2931 13.4496 25.1065V19.7176C13.4501 19.2231 13.6468 18.7489 13.9965 18.3992C14.3462 18.0495 14.8204 17.8528 15.3149 17.8523H25.0612V31.9017C25.064 35.629 25.6788 39.3306 26.8811 42.8587C25.2455 42.4713 23.674 41.851 22.2146 41.017V41.017ZM72.1295 33.5194L68.2023 36.3724C67.7522 36.6995 67.4171 37.1607 67.2452 37.69C67.0733 38.2192 67.0734 38.7893 67.2454 39.3185L68.7448 43.9342C68.9168 44.4634 68.9168 45.0336 68.7448 45.5629C68.5729 46.0921 68.2378 46.5534 67.7876 46.8805C67.3374 47.2077 66.7951 47.3839 66.2386 47.3839C65.6821 47.3839 65.1399 47.2078 64.6896 46.8807L60.7624 44.028C60.3123 43.701 59.7701 43.5249 59.2137 43.5249C58.6573 43.5249 58.1151 43.701 57.6649 44.028L53.7378 46.8807C53.2875 47.2078 52.7453 47.3839 52.1888 47.3839C51.6322 47.3839 51.09 47.2077 50.6398 46.8805C50.1896 46.5534 49.8545 46.0921 49.6825 45.5629C49.5106 45.0336 49.5106 44.4634 49.6826 43.9342L51.1823 39.3185C51.3542 38.7893 51.3542 38.2192 51.1822 37.6899C51.0102 37.1607 50.6751 36.6995 50.2249 36.3724L46.3002 33.5194C45.85 33.1923 45.5148 32.7311 45.3428 32.2018C45.1708 31.6725 45.1708 31.1024 45.3427 30.5731C45.5147 30.0438 45.8498 29.5825 46.3 29.2553C46.7502 28.9282 47.2925 28.752 47.849 28.752H52.7019C53.2584 28.752 53.8007 28.5759 54.2509 28.2488C54.7012 27.9218 55.0363 27.4605 55.2083 26.9313L56.7082 22.3157C56.8802 21.7864 57.2153 21.3251 57.6655 20.998C58.1158 20.6709 58.658 20.4947 59.2145 20.4947C59.771 20.4947 60.3133 20.6709 60.7635 20.998C61.2137 21.3251 61.5489 21.7864 61.7208 22.3157L63.2207 26.9313C63.3929 27.4604 63.7281 27.9215 64.1783 28.2486C64.6285 28.5756 65.1707 28.7518 65.7271 28.752H70.5806C71.1371 28.7521 71.6793 28.9283 72.1294 29.2555C72.5796 29.5826 72.9147 30.0438 73.0867 30.5731C73.2586 31.1023 73.2586 31.6725 73.0867 32.2017C72.9148 32.731 72.5797 33.1922 72.1295 33.5194V33.5194ZM104.551 25.1064C104.607 28.2932 103.827 31.439 102.289 34.2306C100.751 37.0223 98.5081 39.3623 95.7845 41.0179C94.4662 41.7731 93.0553 42.3537 91.5874 42.7451C92.7643 39.2507 93.3657 35.5884 93.3682 31.9011V17.8517H102.686C103.181 17.8523 103.655 18.049 104.004 18.3987C104.354 18.7484 104.551 19.2225 104.551 19.7171V25.1064Z" fill="white"/>
</svg>
