<svg width="148" height="118" viewBox="0 0 148 118" fill="none" xmlns="http://www.w3.org/2000/svg">
<path d="M18.6095 76.8051C18.1393 76.8051 17.6675 76.7811 17.1973 76.7338C13.3421 76.3424 9.80845 74.3277 7.24836 71.0622C3.88898 66.7751 2.4587 60.791 3.32408 54.6432C4.84001 43.8717 12.9665 36.0532 22.648 36.0532C23.7628 36.0532 24.6297 36.8367 25.5491 37.6668C26.2703 38.3188 27.1672 39.1301 27.7967 39.1301H52.1943C52.8328 39.1301 53.7357 38.315 54.4614 37.6607C55.3764 36.8337 56.2417 36.0532 57.352 36.0532C67.032 36.0532 75.1585 43.8717 76.6759 54.6432V54.6439C77.5413 60.7918 76.1095 66.7773 72.7502 71.0637C70.1901 74.3284 66.6579 76.3424 62.8027 76.7338C56.8067 77.3392 50.782 74.0137 46.9374 67.9995H33.0612C29.5185 73.5419 24.1369 76.8051 18.6095 76.8051ZM22.5008 39.1309C14.4344 39.2112 7.66302 45.8909 6.37095 55.0721C5.62126 60.3959 6.82318 65.5318 9.67023 69.1639C11.739 71.8029 14.4494 73.3616 17.5068 73.6719C22.5488 74.1849 27.6765 71.1223 30.8737 65.6821L31.3199 64.9226H48.6787L49.1249 65.6821C52.322 71.123 57.4512 74.197 62.4933 73.6719C65.5506 73.3616 68.2595 71.8036 70.3283 69.1654C73.1753 65.5333 74.3788 60.3966 73.6291 55.0721C72.3355 45.8909 65.5657 39.212 57.5008 39.1309C57.2739 39.2668 56.8277 39.6695 56.5227 39.9444C55.465 40.8992 54.0167 42.207 52.1943 42.207H27.7967C25.9833 42.207 24.5981 40.9555 23.4848 39.9497C23.1783 39.6725 22.7291 39.2668 22.5008 39.1309Z" fill="white"/>
<path d="M58.4607 45.6415H55.3838V50.2652H58.4607V45.6415Z" fill="white"/>
<path d="M58.4607 62.5931H55.3838V67.2168H58.4607V62.5931Z" fill="white"/>
<path d="M67.6916 54.8911H63.0762V57.968H67.6916V54.8911Z" fill="white"/>
<path d="M50.7685 54.8911H46.1531V57.968H50.7685V54.8911Z" fill="white"/>
<path d="M23.0762 48.7237H19.9993V64.1346H23.0762V48.7237Z" fill="white"/>
<path d="M29.2301 54.8911H13.8455V57.968H29.2301V54.8911Z" fill="white"/>
<path d="M41.3575 41.392L38.6411 39.9452C41.7842 34.046 40.0098 26.727 34.517 22.9207L34.2751 22.7539C31.048 20.5168 29.6447 16.3499 30.8647 12.6187C31.709 10.03 30.6979 7.23557 28.4113 5.80002L30.0489 3.19485C33.5314 5.38235 35.0729 9.64092 33.7959 13.5502C32.9891 16.0224 33.9086 18.7568 36.0254 20.2239L36.2673 20.3906C43.0462 25.0871 45.2337 34.1151 41.3575 41.392Z" fill="white"/>
<path d="M84.3075 114.685C83.8196 114.685 83.3302 114.66 82.8423 114.611C78.8425 114.205 75.1764 112.115 72.5203 108.727C69.0349 104.279 67.551 98.0707 68.4488 91.6923C70.0216 80.5169 78.4528 72.4052 88.4974 72.4052C89.654 72.4052 90.5534 73.2181 91.5073 74.0793C92.2555 74.7558 93.1861 75.5975 93.8392 75.5975H119.152C119.814 75.5975 120.751 74.7519 121.504 74.073C122.453 73.2149 123.351 72.4052 124.503 72.4052C134.546 72.4052 142.977 80.5169 144.551 91.6923V91.6931C145.449 98.0715 143.964 104.281 140.478 108.729C137.822 112.116 134.158 114.205 130.158 114.611C123.937 115.239 117.686 111.789 113.698 105.55H99.301C95.6255 111.3 90.0421 114.685 84.3075 114.685ZM88.3446 75.5983C79.9757 75.6817 72.9505 82.6118 71.61 92.1373C70.8321 97.6607 72.0791 102.989 75.033 106.758C77.1794 109.495 79.9913 111.113 83.1634 111.435C88.3945 111.967 93.7145 108.789 97.0315 103.145L97.4945 102.357H115.504L115.967 103.145C119.284 108.79 124.606 111.979 129.837 111.435C133.009 111.113 135.819 109.496 137.966 106.759C140.92 102.991 142.168 97.6615 141.39 92.1373C140.048 82.6118 133.024 75.6824 124.657 75.5983C124.422 75.7393 123.959 76.1571 123.642 76.4423C122.545 77.4329 121.042 78.7898 119.152 78.7898H93.8392C91.9578 78.7898 90.5206 77.4914 89.3656 76.4478C89.0476 76.1602 88.5816 75.7393 88.3446 75.5983Z" fill="white"/>
<path d="M125.653 82.3531H122.461V87.1501H125.653V82.3531Z" fill="white"/>
<path d="M125.653 99.9404H122.461V104.737H125.653V99.9404Z" fill="white"/>
<path d="M135.23 91.9495H130.442V95.1418H135.23V91.9495Z" fill="white"/>
<path d="M117.672 91.9495H112.884V95.1418H117.672V91.9495Z" fill="white"/>
<path d="M88.9417 85.5508H85.7494V101.54H88.9417V85.5508Z" fill="white"/>
<path d="M95.3263 91.9495H79.3647V95.1418H95.3263V91.9495Z" fill="white"/>
<path d="M107.908 77.9442L105.09 76.4431C108.351 70.3227 106.51 62.7293 100.811 58.7802L100.56 58.6072C97.2123 56.2862 95.7564 51.963 97.0221 48.0919C97.8981 45.4062 96.8491 42.5069 94.4767 41.0175L96.1757 38.3147C99.7889 40.5842 101.388 45.0025 100.063 49.0583C99.2262 51.6232 100.18 54.4601 102.376 55.9822L102.627 56.1553C109.66 61.0279 111.93 70.3944 107.908 77.9442Z" fill="white"/>
</svg>
