<svg width="117" height="118" viewBox="0 0 117 118" fill="none" xmlns="http://www.w3.org/2000/svg">
<path d="M62.3505 37.1789C59.8508 40.0439 58.0887 42.9255 57.1574 45.7651C56.8638 46.6637 56.6578 47.5475 56.5356 48.413C55.2398 48.0921 53.8908 47.9192 52.5002 47.9192C43.135 47.9192 35.5142 55.6057 35.5142 65.0505C35.5142 74.4964 43.1344 82.1805 52.5002 82.1805C61.8655 82.1805 69.4851 74.4964 69.4851 65.0505C69.4851 63.6492 69.3149 62.2857 68.9967 60.9795C72.5616 60.4768 76.3402 58.4873 80.138 55.119C81.236 58.2265 81.838 61.5683 81.838 65.0505C81.838 81.3651 68.6761 94.6401 52.5002 94.6401C36.3227 94.6401 23.1613 81.3651 23.1613 65.0505C23.1613 48.7352 36.3227 35.462 52.5002 35.462C55.9547 35.4614 59.271 36.0702 62.3505 37.1789ZM95.1514 34.2153C92.8687 38.6798 90.4679 42.6871 87.9963 46.1539C90.9628 51.7985 92.6447 58.2289 92.6447 65.0505C92.6447 87.3778 74.639 105.54 52.5002 105.54C30.3638 105.54 12.354 87.3778 12.354 65.0505C12.354 42.7243 30.3638 24.5605 52.5002 24.5605C59.2646 24.5605 65.6423 26.2591 71.2407 29.2516C74.6665 26.7636 78.6304 24.3434 83.0718 22.0336C74.4559 15.7866 63.8984 12.1021 52.5002 12.1021C23.5515 12.1021 0 35.8561 0 65.0505C0 94.2466 23.5515 117.999 52.5002 117.999C81.4466 117.999 105 94.2466 105 65.0505C105 53.5549 101.346 42.906 95.1514 34.2153ZM53.9961 57.4141C53.5123 57.3156 53.0121 57.2642 52.5002 57.2642C48.2414 57.2642 44.78 60.757 44.78 65.051C44.78 69.3451 48.2414 72.8373 52.5002 72.8373C56.7579 72.8373 60.2211 69.3451 60.2211 65.051C60.2211 64.5348 60.1684 64.0309 60.0748 63.543L54.832 67.663C54.2213 68.1444 53.455 68.4117 52.6746 68.4117C51.7397 68.4117 50.8576 68.0429 50.1953 67.3756C48.9464 66.1142 48.8241 64.1017 49.9116 62.6981L53.9961 57.4141Z" fill="white"/>
<path d="M98.6234 21.2441C102.617 22.0495 111.041 23.1546 114.95 19.2122C120.84 13.2709 112.725 4.3135 107.119 9.96452C112.725 4.3135 103.842 -3.87334 97.9489 2.06796C94.0423 6.00916 95.138 14.5046 95.9353 18.5325L93.9235 20.5621C65.6271 32.5385 56.3361 46.6926 60.6862 54.1012L52.4804 64.7201C52.4049 64.8186 52.4119 64.9596 52.5008 65.0511C52.5898 65.1419 52.7313 65.1484 52.8308 65.0705L63.3584 56.7975C70.7008 61.183 84.7361 51.8144 96.6122 23.2743L98.6234 21.2441Z" fill="white"/>
</svg>
