<svg width="33" height="33" viewBox="0 0 33 33" fill="none" xmlns="http://www.w3.org/2000/svg">
<path fill-rule="evenodd" clip-rule="evenodd" d="M26.9971 6.23638C24.2897 3.52591 20.6893 2.03258 16.8533 2.03101C8.94954 2.03101 2.51665 8.46337 2.51357 16.3696C2.51246 18.897 3.17278 21.3639 4.42769 23.5385L2.39331 30.9692L9.99502 28.9751C12.0895 30.1175 14.4477 30.7197 16.8476 30.7205H16.8535C16.8539 30.7205 16.8531 30.7205 16.8536 30.7205C24.7566 30.7205 31.1899 24.2875 31.1932 16.3811C31.1946 12.5495 29.7044 8.94673 26.9971 6.23638ZM16.8534 28.2988H16.8486C14.71 28.2979 12.6123 27.7233 10.7824 26.6374L10.3472 26.3792L5.83627 27.5624L7.04037 23.1643L6.75695 22.7133C5.56391 20.8157 4.93381 18.6224 4.93474 16.3704C4.9373 9.79907 10.2841 4.45288 16.8582 4.45288C20.0416 4.45387 23.0342 5.69527 25.2845 7.94811C27.5347 10.2009 28.7732 13.1955 28.7719 16.3801C28.7693 22.952 23.4227 28.2988 16.8534 28.2988Z" fill="#0C0F1B"/>
<path fill-rule="evenodd" clip-rule="evenodd" d="M23.391 19.3723C23.0327 19.1929 21.2711 18.3263 20.9427 18.2066C20.6142 18.0871 20.3754 18.0273 20.1365 18.386C19.8977 18.7446 19.211 19.5517 19.002 19.7909C18.793 20.0299 18.5839 20.06 18.2257 19.8804C17.8675 19.7011 16.713 19.3228 15.3444 18.1021C14.2792 17.152 13.5602 15.9788 13.3511 15.62C13.1421 15.2613 13.3288 15.0674 13.5082 14.8887C13.6694 14.7281 13.8666 14.4703 14.0457 14.261C14.2248 14.0519 14.2846 13.9023 14.404 13.6633C14.5234 13.4242 14.4638 13.2149 14.3741 13.0356C14.2846 12.8563 13.568 11.0927 13.2695 10.3752C12.9785 9.6766 12.6832 9.77125 12.4632 9.76013C12.2545 9.74971 12.0154 9.74756 11.7765 9.74756C11.5377 9.74756 11.1495 9.83726 10.8211 10.1959C10.4927 10.5546 9.56702 11.4215 9.56702 13.1849C9.56702 14.9486 10.8509 16.6523 11.0301 16.8914C11.2092 17.1306 13.5566 20.7496 17.1509 22.3016C18.0057 22.6708 18.6731 22.8912 19.1934 23.0563C20.0518 23.3291 20.8329 23.2905 21.4502 23.1983C22.1387 23.0954 23.5701 22.3315 23.8687 21.4947C24.1673 20.6576 24.1673 19.9402 24.0776 19.7908C23.9881 19.6414 23.7492 19.5517 23.391 19.3723Z" fill="#0C0F1B"/>
</svg>
