<svg width="33" height="33" viewBox="0 0 33 33" fill="none" xmlns="http://www.w3.org/2000/svg">
<g clip-path="url(#clip0_19_823)">
<path d="M30.0945 8.20622C30.0337 8.12477 29.9575 8.05608 29.8702 8.00409C29.7829 7.9521 29.6862 7.91783 29.5856 7.90322C29.4851 7.88862 29.3826 7.89397 29.2841 7.91897C29.1857 7.94398 29.0931 7.98815 29.0116 8.04895L16.5361 17.3611C16.4915 17.3946 16.4372 17.4127 16.3814 17.4127C16.3256 17.4127 16.2714 17.3946 16.2267 17.3611L3.9961 8.0077C3.91535 7.94608 3.82326 7.90097 3.72508 7.87495C3.6269 7.84892 3.52455 7.84248 3.42388 7.85601C3.32321 7.86954 3.2262 7.90276 3.13837 7.95378C3.05054 8.0048 2.97362 8.07262 2.912 8.15337C2.85038 8.23411 2.80527 8.32621 2.77924 8.42439C2.75321 8.52257 2.74678 8.62492 2.76031 8.72559C2.77383 8.82625 2.80705 8.92327 2.85808 9.0111C2.9091 9.09893 2.97692 9.17585 3.05766 9.23747L12.6741 16.5929L3.16337 23.76C3.08143 23.8212 3.01234 23.8978 2.96003 23.9856C2.90772 24.0734 2.87322 24.1707 2.8585 24.2718C2.84377 24.373 2.84912 24.476 2.87422 24.5751C2.89933 24.6742 2.9437 24.7674 3.00481 24.8493C3.06592 24.9312 3.14257 25.0003 3.23039 25.0526C3.3182 25.1049 3.41546 25.1395 3.5166 25.1542C3.61775 25.1689 3.72081 25.1636 3.81989 25.1384C3.91897 25.1133 4.01214 25.069 4.09407 25.0079L13.9502 17.5674L15.2857 18.5986C15.5971 18.837 15.9777 18.9674 16.3698 18.9702C16.7619 18.973 17.1443 18.848 17.4591 18.6141L18.8616 17.5674L28.8338 25.0079C28.9152 25.0686 29.0078 25.1128 29.1063 25.1378C29.2047 25.1627 29.3072 25.1681 29.4077 25.1535C29.5083 25.1389 29.605 25.1046 29.6923 25.0526C29.7796 25.0007 29.8558 24.932 29.9166 24.8506C29.9773 24.7692 30.0215 24.6766 30.0465 24.5781C30.0715 24.4796 30.0768 24.3772 30.0622 24.2766C30.0476 24.1761 30.0133 24.0794 29.9614 23.9921C29.9094 23.9048 29.8407 23.8286 29.7593 23.7678L20.1532 16.5903L29.9372 9.2813C30.0995 9.15875 30.207 8.97723 30.2364 8.77602C30.2658 8.57481 30.2148 8.37011 30.0945 8.20622V8.20622Z" fill="#0C0F1B"/>
<path d="M29.1328 4.89844H3.86719C2.84155 4.89844 1.85791 5.30587 1.13267 6.03111C0.407435 6.75635 0 7.73998 0 8.76562L0 24.2344C0 25.26 0.407435 26.2437 1.13267 26.9689C1.85791 27.6941 2.84155 28.1016 3.86719 28.1016H29.1328C30.1585 28.1016 31.1421 27.6941 31.8673 26.9689C32.5926 26.2437 33 25.26 33 24.2344V8.76562C33 7.73998 32.5926 6.75635 31.8673 6.03111C31.1421 5.30587 30.1585 4.89844 29.1328 4.89844ZM31.4531 24.2344C31.4531 24.8498 31.2087 25.4399 30.7735 25.8751C30.3384 26.3102 29.7482 26.5547 29.1328 26.5547H3.86719C3.2518 26.5547 2.66162 26.3102 2.22648 25.8751C1.79134 25.4399 1.54688 24.8498 1.54688 24.2344V8.76562C1.54687 8.15024 1.79134 7.56006 2.22648 7.12492C2.66162 6.68977 3.2518 6.44531 3.86719 6.44531H29.1328C29.7482 6.44531 30.3384 6.68977 30.7735 7.12492C31.2087 7.56006 31.4531 8.15024 31.4531 8.76562V24.2344Z" fill="#0C0F1B"/>
</g>
<defs>
<clipPath id="clip0_19_823">
<rect width="33" height="33" fill="white"/>
</clipPath>
</defs>
</svg>
